# xmcd CD database file
#
# Track frame offsets:
#	183
#	28708
#	52658
#	81670
#	107358
#	153570
#	176145
#	189195
#
# Disc length: 2859 seconds
#
# Revision: 1
# Processed by: cddbd v1.5.2PL0 Copyright (c) Steve Scherf et al.
# Submitted via: CDex 1.70beta3
#
DISCID=5b0b2908
DTITLE=菊地雅章＆渋谷毅 - TANDEM
DYEAR=2000
DGENRE=Jazz
TTITLE0=CARAVAN
TTITLE1=SOLITUDE
TTITLE2=CORDON BLEU
TTITLE3=I DIDN'T KNOW ABOUT YOU
TTITLE4=BLACK AND TAN FANTASY
TTITLE5=FOUNTAIN BLEU FOREST
TTITLE6=DANCERS IN LOVE
TTITLE7=COME SUNDAY
EXTD=YEAR: 2000
EXTT0=
EXTT1=
EXTT2=
EXTT3=
EXTT4=
EXTT5=
EXTT6=
EXTT7=
PLAYORDER=
